<svg id="Capa_1" enable-background="new 0 0 510 510" height="512" viewBox="0 0 510 510" width="512" xmlns="http://www.w3.org/2000/svg"><g><path d="m405 305.917v-95.917c0-65.43-42.487-123.41-105-143.116v-21.884c0-24.813-20.187-45-45-45s-45 20.187-45 45v21.884c-62.158 19.594-105 77.31-105 143.116v95.917c0 28.838-14.326 55.605-38.32 71.602l-6.68 4.453v68.028h135c0 33.084 26.916 60 60 60s60-26.916 60-60h135v-68.028l-6.68-4.453c-23.995-15.996-38.32-42.763-38.32-71.602zm-176.681-212.938 11.681-2.651v-45.328c0-8.271 6.729-15 15-15s15 6.729 15 15v45.328l11.681 2.65c54.944 12.469 93.319 60.59 93.319 117.022h-240c0-56.432 38.374-104.553 93.319-117.021zm-93.319 147.021h240v30h-240zm120 240c-16.542 0-30-13.458-30-30h60c0 16.542-13.458 30-30 30zm165-60c-36.886 0-291.603 0-330 0v-22.319c28.32-21.902 45-55.628 45-91.764v-5.917h240v5.917c0 36.136 16.679 69.861 45 91.764z"/><path d="m90 105c0-8.271 6.729-15 15-15v-30c-24.813 0-45 20.187-45 45z"/><path d="m105 0c-57.897 0-105 47.103-105 105h30c0-41.355 33.645-75 75-75z"/><path d="m405 60v30c8.271 0 15 6.729 15 15h30c0-24.813-20.187-45-45-45z"/><path d="m405 0v30c41.355 0 75 33.645 75 75h30c0-57.897-47.103-105-105-105z"/></g></svg>